<svg xmlns="http://www.w3.org/2000/svg" viewBox="0 0 96 96" fill="none">
  <rect width="96" height="96" rx="28" fill="#54256A"/>
  <path
    d="M16 59.5C16 43.2 27.6 31.4 43.5 27.6"
    stroke="#BE88D7"
    stroke-width="7"
    stroke-linecap="round"
  />
  <path
    d="M76.5 43C79 49 79 55.4 77 61.6C74.1 70.6 67.1 77.8 58.3 81"
    stroke="#A654CC"
    stroke-width="7"
    stroke-linecap="round"
  />
  <path
    d="M53.4 80.5L58.8 80.8L56.1 74.7"
    stroke="#A654CC"
    stroke-width="7"
    stroke-linecap="round"
    stroke-linejoin="round"
  />
  <path
    d="M47.8 18.5L70.8 23.1C74 23.7 76.1 26.9 75.4 30.1L68.5 64.3C67.8 67.5 64.7 69.6 61.5 69L38.4 64.4C35.2 63.7 33.1 60.6 33.8 57.4L40.8 23.2C41.4 20 44.6 17.9 47.8 18.5Z"
    fill="#C394D9"
  />
  <path
    d="M31.5 28.3H55.8C59.1 28.3 61.8 31 61.8 34.3V66.6C61.8 69.9 59.1 72.6 55.8 72.6H31.5C28.2 72.6 25.5 69.9 25.5 66.6V34.3C25.5 31 28.2 28.3 31.5 28.3Z"
    fill="#FDF7FE"
  />
  <path
    d="M47.8 18.5L70.8 23.1C74 23.7 76.1 26.9 75.4 30.1L68.5 64.3C67.8 67.5 64.7 69.6 61.5 69L38.4 64.4C35.2 63.7 33.1 60.6 33.8 57.4L40.8 23.2C41.4 20 44.6 17.9 47.8 18.5Z"
    stroke="#54256A"
    stroke-width="4"
    stroke-linejoin="round"
  />
  <path
    d="M31.5 28.3H55.8C59.1 28.3 61.8 31 61.8 34.3V66.6C61.8 69.9 59.1 72.6 55.8 72.6H31.5C28.2 72.6 25.5 69.9 25.5 66.6V34.3C25.5 31 28.2 28.3 31.5 28.3Z"
    stroke="#54256A"
    stroke-width="4"
    stroke-linejoin="round"
  />
  <path
    d="M37.1 45.8C39 40.9 43.7 37.4 49.3 37.4"
    stroke="#A654CC"
    stroke-width="5"
    stroke-linecap="round"
  />
  <path
    d="M49 63.4C44.5 63.4 40.6 60.9 38.4 57.1"
    stroke="#A654CC"
    stroke-width="5"
    stroke-linecap="round"
  />
  <path
    d="M43.6 46.9L45.4 51.1L49.7 52.8L45.4 54.6L43.6 58.8L41.9 54.6L37.6 52.8L41.9 51.1L43.6 46.9Z"
    fill="#54256A"
  />
</svg>
